<svg width="25" height="24" viewBox="0 0 25 24" fill="none" xmlns="http://www.w3.org/2000/svg">
<path d="M11.3335 17H13.3335V13H17.3335V11H13.3335V7H11.3335V11H7.3335V13H11.3335V17ZM12.3335 22C10.9502 22 9.65016 21.7417 8.4335 21.225C7.21683 20.6917 6.1585 19.975 5.2585 19.075C4.3585 18.175 3.64183 17.1167 3.1085 15.9C2.59183 14.6833 2.3335 13.3833 2.3335 12C2.3335 10.6167 2.59183 9.31667 3.1085 8.1C3.64183 6.88333 4.3585 5.825 5.2585 4.925C6.1585 4.025 7.21683 3.31667 8.4335 2.8C9.65016 2.26667 10.9502 2 12.3335 2C13.7168 2 15.0168 2.26667 16.2335 2.8C17.4502 3.31667 18.5085 4.025 19.4085 4.925C20.3085 5.825 21.0168 6.88333 21.5335 8.1C22.0668 9.31667 22.3335 10.6167 22.3335 12C22.3335 13.3833 22.0668 14.6833 21.5335 15.9C21.0168 17.1167 20.3085 18.175 19.4085 19.075C18.5085 19.975 17.4502 20.6917 16.2335 21.225C15.0168 21.7417 13.7168 22 12.3335 22ZM12.3335 20C14.5668 20 16.4585 19.225 18.0085 17.675C19.5585 16.125 20.3335 14.2333 20.3335 12C20.3335 9.76667 19.5585 7.875 18.0085 6.325C16.4585 4.775 14.5668 4 12.3335 4C10.1002 4 8.2085 4.775 6.6585 6.325C5.1085 7.875 4.3335 9.76667 4.3335 12C4.3335 14.2333 5.1085 16.125 6.6585 17.675C8.2085 19.225 10.1002 20 12.3335 20Z" fill="#45D099"/>
</svg>
