<svg width="40" height="40" viewBox="0 0 40 40" fill="none" xmlns="http://www.w3.org/2000/svg">
<g clip-path="url(#clip0_2036_8617)">
<path fill-rule="evenodd" clip-rule="evenodd" d="M9.69462 0H24L36 12V34.7926C36 37.6711 33.5088 40 30.4403 40H9.57031C6.49114 40 4 37.6711 4 34.7926V5.20733C3.99995 2.32878 6.61539 0 9.69462 0Z" fill="#64696B"/>
<path d="M24.0257 8.16V0L36 12H28.0171C24.4248 12 23.8593 9.44 24.0257 8.16Z" fill="white" fill-opacity="0.3"/>
<path d="M20.7111 25.4545L20.5865 30.0376H19.4167L19.2889 25.4545H20.7111ZM20.0016 32.0831C19.7907 32.0831 19.6096 32.0085 19.4583 31.8594C19.307 31.7081 19.2324 31.527 19.2346 31.3161C19.2324 31.1072 19.307 30.9283 19.4583 30.7791C19.6096 30.63 19.7907 30.5554 20.0016 30.5554C20.204 30.5554 20.3819 30.63 20.5353 30.7791C20.6887 30.9283 20.7665 31.1072 20.7686 31.3161C20.7665 31.4567 20.7292 31.5856 20.6568 31.7028C20.5865 31.8178 20.4938 31.9105 20.3787 31.9808C20.2637 32.049 20.138 32.0831 20.0016 32.0831Z" fill="white"/>
</g>
<defs>
<clipPath id="clip0_2036_8617">
<rect width="40" height="40" fill="white"/>
</clipPath>
</defs>
</svg>
