<svg width="20" height="20" viewBox="0 0 20 20" fill="none" xmlns="http://www.w3.org/2000/svg">
<g clip-path="url(#clip0_2036_5253)">
<path d="M5.0013 7.50008V1.66675H15.0013V7.50008M5.0013 15.0001H3.33464C2.89261 15.0001 2.46868 14.8245 2.15612 14.5119C1.84356 14.1994 1.66797 13.7754 1.66797 13.3334V9.16675C1.66797 8.72472 1.84356 8.3008 2.15612 7.98824C2.46868 7.67568 2.89261 7.50008 3.33464 7.50008H16.668C17.11 7.50008 17.5339 7.67568 17.8465 7.98824C18.159 8.3008 18.3346 8.72472 18.3346 9.16675V13.3334C18.3346 13.7754 18.159 14.1994 17.8465 14.5119C17.5339 14.8245 17.11 15.0001 16.668 15.0001H15.0013M5.0013 11.6667H15.0013V18.3334H5.0013V11.6667Z" stroke="white" stroke-width="2" stroke-linecap="round" stroke-linejoin="round"/>
</g>
<defs>
<clipPath id="clip0_2036_5253">
<rect width="20" height="20" fill="white"/>
</clipPath>
</defs>
</svg>
