<svg width="48" height="48" viewBox="0 0 48 48" fill="none" xmlns="http://www.w3.org/2000/svg">
<rect width="48" height="48" rx="24" fill="#E8F9F2"/>
<path d="M26.4106 16.2322V22.4447C26.4106 22.6722 26.2269 22.8559 26.0081 22.8559H22.0006C21.7731 22.8559 21.5894 22.6722 21.5894 22.4447V16.2322C21.5894 16.1009 21.4844 15.9872 21.3444 15.9872H20.4869C19.9444 15.9872 19.6556 15.3397 20.0231 14.9372L23.5406 11.0784C23.7944 10.8072 24.2231 10.8072 24.4681 11.0784L27.9769 14.9372C28.3444 15.3397 28.0556 15.9872 27.5131 15.9872H26.6556C26.5244 15.9872 26.4106 16.0922 26.4106 16.2322Z" fill="#16C47F"/>
<path d="M17.1838 15.3659H18.9814C18.9903 16.1351 19.5972 16.8622 20.4869 16.8622H20.7144V17.1159H17.1838C15.635 17.1159 14.375 18.3759 14.375 19.9246V28.9634C14.375 30.5121 15.635 31.7722 17.1838 31.7722H20.115C20.3338 31.7722 20.5438 31.8772 20.6663 32.0522C21.4363 33.1547 22.7138 33.8809 24.1663 33.8809C25.6188 33.8809 26.8963 33.1547 27.6663 32.0522C27.7888 31.8772 27.9988 31.7722 28.2175 31.7722H31.1488C32.6965 31.7722 33.9558 30.5138 33.9575 28.9665V19.9246C33.94 18.3759 32.6888 17.1159 31.1313 17.1159H27.2856V16.8622H27.5131C28.4028 16.8622 29.0098 16.1351 29.0186 15.3659H31.1313C33.6625 15.3659 35.6792 17.4124 35.7074 19.9049L35.7075 19.9148V32.5158C35.7075 35.0318 33.6627 37.0746 31.1475 37.0746H17.185C14.6698 37.0746 12.625 35.0318 12.625 32.5158V19.9246C12.625 17.4094 14.6685 15.3659 17.1838 15.3659Z" fill="#16C47F"/>
<path d="M18.785 19.3472H20.7144V20.2222H18.785C18.0783 20.2222 17.4988 20.8017 17.4988 21.5084V27.4672C17.4988 28.1739 18.0783 28.7534 18.785 28.7534H21.48C22.2239 28.7534 22.8117 29.2715 22.983 29.9329C23.1224 30.4624 23.5985 30.8447 24.1575 30.8447C24.7228 30.8447 25.1997 30.457 25.3304 29.9393L25.3313 29.9355C25.5017 29.2729 26.0902 28.7534 26.835 28.7534H29.53C30.2368 28.7534 30.8163 28.1739 30.8163 27.4672V21.5084C30.8163 20.7994 30.2432 20.2222 29.53 20.2222H27.2856V19.3472H29.53C30.7288 19.3472 31.6913 20.3184 31.6913 21.5084V27.4672C31.6913 28.6572 30.72 29.6284 29.53 29.6284H26.835C26.52 29.6284 26.2575 29.8472 26.1788 30.1534C25.9513 31.0547 25.1288 31.7197 24.1575 31.7197C23.1863 31.7197 22.3725 31.0547 22.1363 30.1534C22.0575 29.8472 21.795 29.6284 21.48 29.6284H18.785C17.595 29.6284 16.6238 28.6572 16.6238 27.4672V21.5084C16.6238 20.3184 17.595 19.3472 18.785 19.3472Z" fill="#16C47F"/>
</svg>
